<?xml version="1.0" encoding="utf-8"?>
<!-- Generator: Adobe Illustrator 22.0.0, SVG Export Plug-In . SVG Version: 6.00 Build 0)  -->
<svg version="1.1" id="Layer_1" xmlns="http://www.w3.org/2000/svg" xmlns:xlink="http://www.w3.org/1999/xlink" x="0px" y="0px"
	 viewBox="0 0 21 20" style="enable-background:new 0 0 21 20;" xml:space="preserve">
<style type="text/css">
	.st0{fill:#3B60E4;}
</style>
<title>star_favorite [#1499]</title>
<desc>Created with Sketch.</desc>
<g id="Page-1">
	<g id="Dribbble-Light-Preview" transform="translate(-99.000000, -320.000000)">
		<g id="icons" transform="translate(56.000000, 160.000000)">
			<path id="star_x5F_favorite-_x5B__x23_1499_x5D_" class="st0" d="M60.6,172.2c-0.4,0.4-0.7,1.1-0.5,1.7l0.7,3.9
				c0.2,1.2-0.8,2.2-1.9,2.2c-0.3,0-0.6-0.1-0.9-0.2l-3.5-1.8c-0.3-0.1-0.6-0.2-0.9-0.2c-0.3,0-0.6,0.1-0.9,0.2l-3.5,1.8
				c-0.3,0.2-0.6,0.2-0.9,0.2c-1.1,0-2.1-1-1.9-2.2l0.7-3.9c0.1-0.6-0.1-1.2-0.5-1.7l-2.9-2.8c-1.1-1.1-0.5-3,1.1-3.2l4-0.6
				c0.6-0.1,1.2-0.5,1.4-1l1.8-3.6c0.3-0.7,1-1.1,1.7-1.1c0.7,0,1.4,0.4,1.7,1.1l1.8,3.6c0.3,0.6,0.8,0.9,1.4,1l4,0.6
				c1.6,0.2,2.2,2.1,1.1,3.2L60.6,172.2z"/>
		</g>
	</g>
</g>
</svg>
